<svg width="26" height="25" viewBox="0 0 26 25" fill="none" xmlns="http://www.w3.org/2000/svg">
<path id="Vector" d="M2.6 24.7C1.885 24.7 1.27292 24.4454 0.76375 23.9363C0.254583 23.4271 0 22.815 0 22.1V7.8C0 7.085 0.254583 6.47292 0.76375 5.96375C1.27292 5.45458 1.885 5.2 2.6 5.2H7.8V2.6C7.8 1.885 8.05458 1.27292 8.56375 0.76375C9.07292 0.254583 9.685 0 10.4 0H15.6C16.315 0 16.9271 0.254583 17.4362 0.76375C17.9454 1.27292 18.2 1.885 18.2 2.6V5.2H23.4C24.115 5.2 24.7271 5.45458 25.2362 5.96375C25.7454 6.47292 26 7.085 26 7.8V22.1C26 22.815 25.7454 23.4271 25.2362 23.9363C24.7271 24.4454 24.115 24.7 23.4 24.7H2.6ZM2.6 22.1H23.4V7.8H2.6V22.1ZM10.4 5.2H15.6V2.6H10.4V5.2Z" fill="white"/>
</svg>
