<svg width="44" height="53" viewBox="0 0 44 53" fill="none" xmlns="http://www.w3.org/2000/svg">
<path id="Vector" d="M22 52.5556C19.0667 49.7852 15.7056 47.6667 11.9167 46.2C8.12778 44.7333 4.15556 44 0 44V17.1111C4.11481 17.1111 8.06667 17.8546 11.8556 19.3417C15.6444 20.8287 19.0259 22.9778 22 25.7889C24.9741 22.9778 28.3556 20.8287 32.1444 19.3417C35.9333 17.8546 39.8852 17.1111 44 17.1111V44C39.8037 44 35.8213 44.7333 32.0528 46.2C28.2843 47.6667 24.9333 49.7852 22 52.5556ZM22 46.2C24.5667 44.2852 27.2963 42.7574 30.1889 41.6167C33.0815 40.4759 36.0556 39.7222 39.1111 39.3556V22.4889C36.137 23.0185 33.2139 24.088 30.3417 25.6972C27.4694 27.3065 24.6889 29.4556 22 32.1444C19.3111 29.4556 16.5306 27.3065 13.6583 25.6972C10.7861 24.088 7.86296 23.0185 4.88889 22.4889V39.3556C7.94444 39.7222 10.9185 40.4759 13.8111 41.6167C16.7037 42.7574 19.4333 44.2852 22 46.2ZM22 19.5556C19.3111 19.5556 17.0093 18.5982 15.0944 16.6833C13.1796 14.7685 12.2222 12.4667 12.2222 9.77778C12.2222 7.08889 13.1796 4.78704 15.0944 2.87222C17.0093 0.957407 19.3111 0 22 0C24.6889 0 26.9907 0.957407 28.9056 2.87222C30.8204 4.78704 31.7778 7.08889 31.7778 9.77778C31.7778 12.4667 30.8204 14.7685 28.9056 16.6833C26.9907 18.5982 24.6889 19.5556 22 19.5556ZM22 14.6667C23.3444 14.6667 24.4954 14.188 25.4528 13.2306C26.4102 12.2731 26.8889 11.1222 26.8889 9.77778C26.8889 8.43333 26.4102 7.28241 25.4528 6.325C24.4954 5.36759 23.3444 4.88889 22 4.88889C20.6556 4.88889 19.5046 5.36759 18.5472 6.325C17.5898 7.28241 17.1111 8.43333 17.1111 9.77778C17.1111 11.1222 17.5898 12.2731 18.5472 13.2306C19.5046 14.188 20.6556 14.6667 22 14.6667Z" fill="white"/>
</svg>
