<svg width="44" height="44" viewBox="0 0 44 44" fill="none" xmlns="http://www.w3.org/2000/svg">
<path id="Vector" d="M18.37 39.16L19.03 36.08C19.14 35.6033 19.3692 35.2092 19.7175 34.8975C20.0658 34.5858 20.4967 34.3933 21.01 34.32L27.83 33.77C28.3067 33.6967 28.7467 33.7883 29.15 34.045C29.5533 34.3017 29.8467 34.65 30.03 35.09L30.91 37.18C32.34 36.3367 33.6233 35.3192 34.76 34.1275C35.8967 32.9358 36.85 31.6067 37.62 30.14L36.96 29.81C36.5567 29.5167 36.2633 29.1592 36.08 28.7375C35.8967 28.3158 35.86 27.8667 35.97 27.39L37.51 20.68C37.62 20.24 37.8492 19.8733 38.1975 19.58C38.5458 19.2867 38.94 19.1033 39.38 19.03C39.1967 18.1133 38.9675 17.2242 38.6925 16.3625C38.4175 15.5008 38.06 14.6667 37.62 13.86C37.29 14.0433 36.9325 14.1258 36.5475 14.1075C36.1625 14.0892 35.8233 13.97 35.53 13.75L29.7 10.23C29.2967 9.97333 29.0033 9.625 28.82 9.185C28.6367 8.745 28.6 8.28667 28.71 7.81L29.15 5.94C28.0133 5.42667 26.8492 5.04167 25.6575 4.785C24.4658 4.52833 23.2467 4.4 22 4.4C21.4867 4.4 20.955 4.4275 20.405 4.4825C19.855 4.5375 19.3233 4.62 18.81 4.73L20.46 8.47C20.6433 8.91 20.6892 9.36833 20.5975 9.845C20.5058 10.3217 20.2767 10.7067 19.91 11L14.74 15.51C14.3733 15.84 13.9425 16.0233 13.4475 16.06C12.9525 16.0967 12.5033 15.9867 12.1 15.73L7.04 12.65C6.19667 14.0433 5.54583 15.5375 5.0875 17.1325C4.62917 18.7275 4.4 20.35 4.4 22C4.4 22.5867 4.47333 23.54 4.62 24.86L9.46 24.42C9.97333 24.3467 10.4408 24.4292 10.8625 24.6675C11.2842 24.9058 11.5867 25.2633 11.77 25.74L14.41 32.01C14.5933 32.45 14.6392 32.9083 14.5475 33.385C14.4558 33.8617 14.2267 34.2467 13.86 34.54L11.77 36.3C12.76 37.0333 13.8142 37.6383 14.9325 38.115C16.0508 38.5917 17.1967 38.94 18.37 39.16ZM22.33 29.7C21.8533 29.7733 21.4133 29.6817 21.01 29.425C20.6067 29.1683 20.3133 28.82 20.13 28.38L17.16 21.56C16.9767 21.12 16.9492 20.6617 17.0775 20.185C17.2058 19.7083 17.4533 19.3233 17.82 19.03L23.43 14.3C23.76 13.97 24.1633 13.7867 24.64 13.75C25.1167 13.7133 25.5567 13.8233 25.96 14.08L32.12 17.71C32.5233 17.9667 32.835 18.315 33.055 18.755C33.275 19.195 33.33 19.6533 33.22 20.13L31.46 27.28C31.35 27.7567 31.13 28.1508 30.8 28.4625C30.47 28.7742 30.0667 28.9667 29.59 29.04L22.33 29.7ZM22 44C18.9567 44 16.0967 43.4225 13.42 42.2675C10.7433 41.1125 8.415 39.545 6.435 37.565C4.455 35.585 2.8875 33.2567 1.7325 30.58C0.5775 27.9033 0 25.0433 0 22C0 18.9567 0.5775 16.0967 1.7325 13.42C2.8875 10.7433 4.455 8.415 6.435 6.435C8.415 4.455 10.7433 2.8875 13.42 1.7325C16.0967 0.5775 18.9567 0 22 0C25.0433 0 27.9033 0.5775 30.58 1.7325C33.2567 2.8875 35.585 4.455 37.565 6.435C39.545 8.415 41.1125 10.7433 42.2675 13.42C43.4225 16.0967 44 18.9567 44 22C44 25.0433 43.4225 27.9033 42.2675 30.58C41.1125 33.2567 39.545 35.585 37.565 37.565C35.585 39.545 33.2567 41.1125 30.58 42.2675C27.9033 43.4225 25.0433 44 22 44Z" fill="white"/>
</svg>
