<svg width="44" height="44" viewBox="0 0 44 44" fill="none" xmlns="http://www.w3.org/2000/svg">
<path id="Vector" d="M0 44V9.77778H9.77778V0H34.2222V19.5556H44V44H24.4444V34.2222H19.5556V44H0ZM4.88889 39.1111H9.77778V34.2222H4.88889V39.1111ZM4.88889 29.3333H9.77778V24.4444H4.88889V29.3333ZM4.88889 19.5556H9.77778V14.6667H4.88889V19.5556ZM14.6667 29.3333H19.5556V24.4444H14.6667V29.3333ZM14.6667 19.5556H19.5556V14.6667H14.6667V19.5556ZM14.6667 9.77778H19.5556V4.88889H14.6667V9.77778ZM24.4444 29.3333H29.3333V24.4444H24.4444V29.3333ZM24.4444 19.5556H29.3333V14.6667H24.4444V19.5556ZM24.4444 9.77778H29.3333V4.88889H24.4444V9.77778ZM34.2222 39.1111H39.1111V34.2222H34.2222V39.1111ZM34.2222 29.3333H39.1111V24.4444H34.2222V29.3333Z" fill="white"/>
</svg>
