<svg width="38" height="44" viewBox="0 0 38 44" fill="none" xmlns="http://www.w3.org/2000/svg">
<path id="Vector" d="M4.63158 44C3.97544 44 3.42544 43.7781 2.98158 43.3342C2.53772 42.8904 2.31579 42.3404 2.31579 41.6842V36.9368C1.62105 36.1649 1.0614 35.3061 0.636842 34.3605C0.212281 33.4149 0 32.3825 0 31.2632V9.26316C0 6.05965 1.48597 3.71491 4.45789 2.22895C7.42982 0.742983 12.1193 0 18.5263 0C25.1649 0 29.9123 0.714035 32.7684 2.14211C35.6246 3.57018 37.0526 5.94386 37.0526 9.26316V31.2632C37.0526 32.3825 36.8404 33.4149 36.4158 34.3605C35.9912 35.3061 35.4316 36.1649 34.7368 36.9368V41.6842C34.7368 42.3404 34.5149 42.8904 34.0711 43.3342C33.6272 43.7781 33.0772 44 32.4211 44H30.1053C29.4491 44 28.8991 43.7781 28.4553 43.3342C28.0114 42.8904 27.7895 42.3404 27.7895 41.6842V39.3684H9.26316V41.6842C9.26316 42.3404 9.04123 42.8904 8.59737 43.3342C8.15351 43.7781 7.60351 44 6.94737 44H4.63158ZM18.6421 6.94737H31.6105H5.67368H18.6421ZM27.7895 23.1579H4.63158H32.4211H27.7895ZM4.63158 18.5263H32.4211V11.5789H4.63158V18.5263ZM10.4211 32.4211C11.386 32.4211 12.2061 32.0833 12.8816 31.4079C13.557 30.7325 13.8947 29.9123 13.8947 28.9474C13.8947 27.9825 13.557 27.1623 12.8816 26.4868C12.2061 25.8114 11.386 25.4737 10.4211 25.4737C9.45614 25.4737 8.63597 25.8114 7.96053 26.4868C7.28509 27.1623 6.94737 27.9825 6.94737 28.9474C6.94737 29.9123 7.28509 30.7325 7.96053 31.4079C8.63597 32.0833 9.45614 32.4211 10.4211 32.4211ZM26.6316 32.4211C27.5965 32.4211 28.4167 32.0833 29.0921 31.4079C29.7675 30.7325 30.1053 29.9123 30.1053 28.9474C30.1053 27.9825 29.7675 27.1623 29.0921 26.4868C28.4167 25.8114 27.5965 25.4737 26.6316 25.4737C25.6667 25.4737 24.8465 25.8114 24.1711 26.4868C23.4956 27.1623 23.1579 27.9825 23.1579 28.9474C23.1579 29.9123 23.4956 30.7325 24.1711 31.4079C24.8465 32.0833 25.6667 32.4211 26.6316 32.4211ZM5.67368 6.94737H31.6105C31.0316 6.29123 29.7868 5.74123 27.8763 5.29737C25.9658 4.85351 22.8877 4.63158 18.6421 4.63158C14.5123 4.63158 11.4921 4.87281 9.58158 5.35526C7.67105 5.83772 6.36842 6.36842 5.67368 6.94737ZM9.26316 34.7368H27.7895C29.0632 34.7368 30.1535 34.2833 31.0605 33.3763C31.9675 32.4693 32.4211 31.3789 32.4211 30.1053V23.1579H4.63158V30.1053C4.63158 31.3789 5.08509 32.4693 5.99211 33.3763C6.89912 34.2833 7.98947 34.7368 9.26316 34.7368Z" fill="white"/>
</svg>
