<svg width="44" height="44" viewBox="0 0 44 44" fill="none" xmlns="http://www.w3.org/2000/svg">
<path id="Vector" d="M3.42222 44L0 40.5778L25.0556 15.5222C24.3222 13.8111 24.2204 11.8759 24.75 9.71667C25.2796 7.55741 26.4407 5.62222 28.2333 3.91111C30.3926 1.75185 32.7963 0.488889 35.4444 0.122222C38.0926 -0.244444 40.2519 0.407407 41.9222 2.07778C43.5926 3.74815 44.2444 5.90741 43.8778 8.55556C43.5111 11.2037 42.2481 13.6074 40.0889 15.7667C38.3778 17.5593 36.4426 18.7204 34.2833 19.25C32.1241 19.7796 30.1889 19.6778 28.4778 18.9444L25.4222 22L44 40.5778L40.5778 44L22 25.5444L3.42222 44ZM10.6333 23.1L3.3 15.7667C1.1 13.5667 0 10.9389 0 7.88333C0 4.82778 1.1 2.2 3.3 0L18.4556 15.2778L10.6333 23.1Z" fill="white"/>
</svg>
