<svg width="18" height="26" viewBox="0 0 18 26" fill="none" xmlns="http://www.w3.org/2000/svg">
<path id="Vector" d="M9 18.8175C11.1214 17.0842 12.7232 15.4158 13.8054 13.8125C14.8875 12.2092 15.4286 10.7033 15.4286 9.295C15.4286 8.08167 15.2089 7.04708 14.7696 6.19125C14.3304 5.33542 13.7893 4.64208 13.1464 4.11125C12.5036 3.58042 11.8071 3.19583 11.0571 2.9575C10.3071 2.71917 9.62143 2.6 9 2.6C8.37857 2.6 7.69286 2.71917 6.94286 2.9575C6.19286 3.19583 5.49643 3.58042 4.85357 4.11125C4.21071 4.64208 3.66964 5.33542 3.23036 6.19125C2.79107 7.04708 2.57143 8.08167 2.57143 9.295C2.57143 10.7033 3.1125 12.2092 4.19464 13.8125C5.27679 15.4158 6.87857 17.0842 9 18.8175ZM9 22.1C5.97857 19.8467 3.72321 17.6583 2.23393 15.535C0.744643 13.4117 0 11.3317 0 9.295C0 7.75667 0.273214 6.40792 0.819643 5.24875C1.36607 4.08958 2.06786 3.12 2.925 2.34C3.78214 1.56 4.74643 0.975 5.81786 0.585C6.88929 0.195 7.95 0 9 0C10.05 0 11.1107 0.195 12.1821 0.585C13.2536 0.975 14.2179 1.56 15.075 2.34C15.9321 3.12 16.6339 4.08958 17.1804 5.24875C17.7268 6.40792 18 7.75667 18 9.295C18 11.3317 17.2554 13.4117 15.7661 15.535C14.2768 17.6583 12.0214 19.8467 9 22.1ZM9 11.7C9.70714 11.7 10.3125 11.4454 10.8161 10.9362C11.3196 10.4271 11.5714 9.815 11.5714 9.1C11.5714 8.385 11.3196 7.77292 10.8161 7.26375C10.3125 6.75458 9.70714 6.5 9 6.5C8.29286 6.5 7.6875 6.75458 7.18393 7.26375C6.68036 7.77292 6.42857 8.385 6.42857 9.1C6.42857 9.815 6.68036 10.4271 7.18393 10.9362C7.6875 11.4454 8.29286 11.7 9 11.7ZM0 26V23.4H18V26H0Z" fill="white"/>
</svg>
