<svg width="26" height="26" viewBox="0 0 26 26" fill="none" xmlns="http://www.w3.org/2000/svg">
<path id="Vector" d="M24.4833 26C21.4741 26 18.5009 25.344 15.5639 24.0319C12.6269 22.7199 9.95463 20.8602 7.54722 18.4528C5.13982 16.0454 3.28009 13.3731 1.96806 10.4361C0.656019 7.49907 0 4.52593 0 1.51667C0 1.08333 0.144444 0.722222 0.433333 0.433333C0.722222 0.144444 1.08333 0 1.51667 0H7.36667C7.7037 0 8.00463 0.114352 8.26944 0.343056C8.53426 0.571759 8.69074 0.842593 8.73889 1.15556L9.67778 6.21111C9.72593 6.5963 9.71389 6.9213 9.64167 7.18611C9.56944 7.45093 9.43704 7.67963 9.24444 7.87222L5.74167 11.4111C6.22315 12.3019 6.79491 13.1625 7.45694 13.9931C8.11898 14.8236 8.84722 15.6241 9.64167 16.3944C10.388 17.1407 11.1704 17.8329 11.9889 18.4708C12.8074 19.1088 13.6741 19.6926 14.5889 20.2222L17.9833 16.8278C18.2 16.6111 18.4829 16.4486 18.8319 16.3403C19.181 16.2319 19.5241 16.2019 19.8611 16.25L24.8444 17.2611C25.1815 17.3574 25.4583 17.5319 25.675 17.7847C25.8917 18.0375 26 18.3204 26 18.6333V24.4833C26 24.9167 25.8556 25.2778 25.5667 25.5667C25.2778 25.8556 24.9167 26 24.4833 26ZM4.36944 8.66667L6.75278 6.28333L6.13889 2.88889H2.925C3.04537 3.87593 3.21389 4.85093 3.43056 5.81389C3.64722 6.77685 3.96019 7.72778 4.36944 8.66667ZM17.2972 21.5944C18.2361 22.0037 19.1931 22.3287 20.1681 22.5694C21.1431 22.8102 22.1241 22.9667 23.1111 23.0389V19.8611L19.7167 19.175L17.2972 21.5944Z" fill="white"/>
</svg>
