<svg width="44" height="44" viewBox="0 0 44 44" fill="none" xmlns="http://www.w3.org/2000/svg">
<path id="Vector" d="M4.94291 44C2.87169 44 1.3995 43.0731 0.526344 41.2194C-0.346816 39.3657 -0.133603 37.6444 1.16599 36.0556L14.6898 19.5556V4.88889H12.2531C11.5627 4.88889 10.984 4.65463 10.5169 4.18611C10.0499 3.71759 9.81637 3.13704 9.81637 2.44444C9.81637 1.75185 10.0499 1.1713 10.5169 0.702778C10.984 0.234259 11.5627 0 12.2531 0H31.7469C32.4373 0 33.016 0.234259 33.4831 0.702778C33.9501 1.1713 34.1836 1.75185 34.1836 2.44444C34.1836 3.13704 33.9501 3.71759 33.4831 4.18611C33.016 4.65463 32.4373 4.88889 31.7469 4.88889H29.3102V19.5556L42.834 36.0556C44.1336 37.6444 44.3468 39.3657 43.4737 41.2194C42.6005 43.0731 41.1283 44 39.0571 44H4.94291ZM4.94291 39.1111H39.0571L24.4367 21.2667V4.88889H19.5633V21.2667L4.94291 39.1111Z" fill="white"/>
</svg>
